<?xml version="1.0" standalone="no"?><svg xmlns="http://www.w3.org/2000/svg" viewBox="0 0 1440 320"><path fill="#00000" fill-opacity="1" d="M0,64L34.3,85.3C68.6,107,137,149,206,154.7C274.3,160,343,128,411,106.7C480,85,549,75,617,101.3C685.7,128,754,192,823,213.3C891.4,235,960,213,1029,197.3C1097.1,181,1166,171,1234,160C1302.9,149,1371,139,1406,133.3L1440,128L1440,0L1405.7,0C1371.4,0,1303,0,1234,0C1165.7,0,1097,0,1029,0C960,0,891,0,823,0C754.3,0,686,0,617,0C548.6,0,480,0,411,0C342.9,0,274,0,206,0C137.1,0,69,0,34,0L0,0Z"></path></svg>